:SAMPLES-PER-SECOND 30
:FULLY-SPECIFIED
:DEGREES
295
root  3.92807 40.2565 3.85233 25.7708 78.748 21.7099
RightUpLeg  2.38582 -12.6792 -10.7507
RightLeg  11.088 -4.90495 1.73332
RightFoot  -15.479 0.0336664 3.83461
RightToes  0.000482159 0.542163 -0.142577
Spine  5.69119 3.35609 6.23722
Spine1  1.55585 6.05024 -11.447
HEad  -6.06989 3.47227 -3.66088
LeftShoulder1  3.02192 -4.23688 -32.8959
LeftArm  -20.4325 35.9435 -22.3831
LeftForeArm  22.9965 -21.0768 -3.24309
LeftHand  -0.25398 0.0180481 5.50724
RightShoulder  2.26729 3.61432 25.752
RightArm  -20.6157 -20.7614 21.2582
RightForeArm  1.84101 24.8016 5.21616
RightHand  -1.27372 2.54409 -18.7518
LeftUpLeg  -1.58884 3.49272 -5.53054
LeftLeg  7.13277 22.462 -2.42781
LeftFoot  -15.553 -0.0812311 -4.71295
LeftToes  1.06248e-005 4.65855e-005 -8.18498e-006
296
root  3.94806 40.3182 3.76625 21.0636 78.0535 16.9838
RightUpLeg  2.48715 -12.1491 -10.379
RightLeg  10.3017 -4.39199 2.09905
RightFoot  -13.8525 -0.01393 3.64619
RightToes  0.000482159 0.542163 -0.142577
Spine  5.68102 3.73293 7.05549
Spine1  1.28319 6.40724 -11.4272
HEad  -6.97682 3.0695 -4.83343
LeftShoulder1  2.42853 -2.9637 -31.362
LeftArm  -20.3759 37.9435 -24.4482
LeftForeArm  24.4275 -19.2187 -2.71123
LeftHand  -0.25398 0.0180481 5.50724
RightShoulder  2.12763 3.28622 25.2101
RightArm  -19.327 -21.0404 20.2682
RightForeArm  5.14386 25.0028 5.08849
RightHand  -1.21299 2.45938 -18.0666
LeftUpLeg  -1.78288 3.42879 -5.23647
LeftLeg  7.15269 23.7343 -2.18293
LeftFoot  -14.0443 0.0238397 -2.48586
LeftToes  1.06248e-005 4.65855e-005 -8.18498e-006
297
root  4.00198 40.3522 3.73657 19.228 78.0481 15.3965
RightUpLeg  3.18319 -11.7072 -10.1549
RightLeg  9.49723 -4.72301 2.3013
RightFoot  -12.8506 -0.0430083 3.35375
RightToes  0.000482159 0.542163 -0.142577
Spine  5.38581 3.89497 5.96068
Spine1  1.52261 6.17583 -9.57879
HEad  -7.6309 2.68686 -5.34668
LeftShoulder1  1.91351 -1.85389 -29.4628
LeftArm  -19.5153 39.8474 -26.2181
LeftForeArm  23.3948 -16.2518 -2.16715
LeftHand  -0.25398 0.0180481 5.50724
RightShoulder  1.99733 3.00068 24.5511
RightArm  -18.7998 -21.0545 18.8103
RightForeArm  8.30642 24.2856 4.7643
RightHand  -1.17617 2.64095 -17.1608
LeftUpLeg  -1.62908 3.4288 -5.06909
LeftLeg  7.11285 24.1833 -2.16863
LeftFoot  -12.4272 0.0741531 -0.128195
LeftToes  1.06248e-005 4.65855e-005 -8.18498e-006
298
root  4.10431 40.3656 3.73291 19.5823 78.753 16.3646
RightUpLeg  4.51432 -11.4416 -10.329
RightLeg  8.7012 -5.70115 2.55155
RightFoot  -12.4496 -0.0552742 3.01528
RightToes  0.000482159 0.542163 -0.142577
Spine  5.2105 3.70065 4.28717
Spine1  1.93369 5.55746 -7.49723
HEad  -7.97505 1.99566 -4.94707
LeftShoulder1  1.51676 -0.99207 -27.4078
LeftArm  -17.9162 41.3494 -26.4103
LeftForeArm  20.6577 -12.4711 -1.82962
LeftHand  -0.25398 0.0180481 5.50724
RightShoulder  1.84366 2.63793 23.8245
RightArm  -19.3691 -21.1261 17.4345
RightForeArm  8.84771 22.6964 4.41629
RightHand  -1.22492 3.03212 -17.056
LeftUpLeg  -0.773323 3.42427 -5.01963
LeftLeg  6.71871 23.7727 -2.45584
LeftFoot  -11.3443 0.0693196 1.29597
LeftToes  1.06248e-005 4.65855e-005 -8.18498e-006
299
root  4.27246 40.3698 3.72513 20.9995 79.7309 18.3958
RightUpLeg  5.81698 -11.4342 -10.6582
RightLeg  8.31248 -6.63514 2.69477
RightFoot  -12.1603 -0.0614902 2.94857
RightToes  0.000482159 0.542163 -0.142577
Spine  5.01232 3.41152 3.33451
Spine1  2.26984 5.06862 -6.49542
HEad  -7.82792 0.664532 -4.02098
LeftShoulder1  1.27371 -0.486893 -25.5022
LeftArm  -16.0592 42.3611 -24.5836
LeftForeArm  18.2812 -8.95861 -1.67233
LeftHand  -0.25398 0.0180481 5.50724
RightShoulder  1.65115 2.13441 23.0468
RightArm  -20.6179 -21.7008 16.287
RightForeArm  6.2781 20.4622 4.17394
RightHand  -1.28589 3.21272 -17.5298
LeftUpLeg  0.378253 3.24962 -5.00302
LeftLeg  6.08184 23.0536 -2.88118
LeftFoot  -10.9429 0.0596122 1.82743
LeftToes  1.06248e-005 4.65855e-005 -8.18498e-006
300
root  4.49842 40.3605 3.70472 23.4853 80.6203 21.1534
RightUpLeg  6.75056 -11.5393 -11.0018
RightLeg  8.15149 -7.28551 2.70935
RightFoot  -11.99 -0.0621137 3.37975
RightToes  0.000482159 0.542163 -0.142577
Spine  4.35278 3.27097 2.8894
Spine1  2.57219 4.87358 -6.26834
HEad  -7.12997 -1.25824 -3.16031
LeftShoulder1  1.13401 -0.248893 -23.7107
LeftArm  -14.2667 43.0796 -21.7017
LeftForeArm  17.137 -6.97358 -1.57528
LeftHand  -0.25398 0.0180481 5.50724
RightShoulder  1.44256 1.56771 22.1522
RightArm  -22.0415 -22.5919 15.2071
RightForeArm  3.14465 17.5594 3.81195
RightHand  -1.23638 2.97657 -17.3158
LeftUpLeg  1.22327 2.87507 -5.15351
LeftLeg  5.53497 22.4987 -3.20631
LeftFoot  -10.8272 0.0554195 2.15187
LeftToes  1.06248e-005 4.65855e-005 -8.18498e-006
